<svg xmlns="http://www.w3.org/2000/svg" width="489" height="315"><g fill="none" fill-rule="evenodd"><g transform="translate(0 30)"><path stroke="#000" stroke-width="6" d="M81.733 48.408c29.802-44.184 81.8-61.226 116.14-38.063 34.34 23.162 38.018 77.758 8.215 121.941-26.106 38.704-69.243 56.58-102.623 44.851L49.26 257.496c6.868 4.632 8.68 13.955 4.047 20.823-4.632 6.868-13.955 8.68-20.823 4.048-6.868-4.633-8.68-13.956-4.048-20.824-4.632 6.868-13.955 8.68-20.823 4.048-6.868-4.633-8.68-13.956-4.048-20.824 4.632-6.868 13.955-8.68 20.823-4.047h0l54.202-80.36c-23.38-26.556-22.964-73.249 3.142-111.952z"/><rect width="82" height="16" x="121.173" y="61.546" fill="#000" stroke="#979797" rx="8" transform="rotate(38 162.173 69.546)"/><rect width="82" height="16" x="84.234" y="108.827" fill="#000" stroke="#979797" rx="8" transform="rotate(38 125.234 116.827)"/><rect width="82" height="16" x="102.704" y="85.187" fill="#000" stroke="#979797" rx="8" transform="rotate(38 143.704 93.187)"/></g><g stroke="#000" transform="translate(229 4)"><circle cx="74.5" cy="55.5" r="37.5" stroke-width="3"/><circle cx="190" cy="56" r="17" stroke-width="3"/><circle cx="129" cy="193" r="92" stroke-width="3"/><circle cx="129" cy="193" r="17" stroke-width="2"/><rect width="256" height="307" stroke-width="8" rx="8"/></g></g></svg>
